<svg xmlns="http://www.w3.org/2000/svg" viewBox="0 0 512 512">
  <!-- Background -->
  <rect width="512" height="512" rx="80" fill="#1A1A1A"/>

  <!-- Store walls -->
  <rect x="100" y="220" width="312" height="220" rx="8" fill="#3A3A3A"/>

  <!-- Roof -->
  <path d="M80 230 L256 140 L432 230 Z" fill="#FF0000"/>
  <rect x="80" y="222" width="352" height="14" rx="4" fill="#CC0000"/>

  <!-- Awning stripes -->
  <rect x="100" y="200" width="44" height="30" rx="4" fill="#FF0000"/>
  <rect x="148" y="200" width="44" height="30" rx="4" fill="#FFFFFF"/>
  <rect x="196" y="200" width="44" height="30" rx="4" fill="#FF0000"/>
  <rect x="244" y="200" width="44" height="30" rx="4" fill="#FFFFFF"/>
  <rect x="292" y="200" width="44" height="30" rx="4" fill="#FF0000"/>
  <rect x="340" y="200" width="44" height="30" rx="4" fill="#FFFFFF"/>
  <rect x="388" y="200" width="24" height="30" rx="4" fill="#FF0000"/>

  <!-- Awning scallops -->
  <ellipse cx="122" cy="232" rx="22" ry="8" fill="#FF0000"/>
  <ellipse cx="170" cy="232" rx="22" ry="8" fill="#FFFFFF"/>
  <ellipse cx="218" cy="232" rx="22" ry="8" fill="#FF0000"/>
  <ellipse cx="266" cy="232" rx="22" ry="8" fill="#FFFFFF"/>
  <ellipse cx="314" cy="232" rx="22" ry="8" fill="#FF0000"/>
  <ellipse cx="362" cy="232" rx="22" ry="8" fill="#FFFFFF"/>
  <ellipse cx="400" cy="232" rx="18" ry="8" fill="#FF0000"/>

  <!-- Door -->
  <rect x="220" y="340" width="72" height="100" rx="6" fill="#1A1A1A"/>
  <circle cx="280" cy="390" r="6" fill="#FF0000"/>

  <!-- Windows -->
  <rect x="130" y="270" width="70" height="55" rx="6" fill="#1A1A1A"/>
  <rect x="312" y="270" width="70" height="55" rx="6" fill="#1A1A1A"/>

  <!-- Window reflections -->
  <line x1="135" y1="275" x2="155" y2="295" stroke="#FFFFFF" stroke-width="2" opacity="0.3"/>
  <line x1="140" y1="275" x2="160" y2="295" stroke="#FFFFFF" stroke-width="2" opacity="0.3"/>
  <line x1="317" y1="275" x2="337" y2="295" stroke="#FFFFFF" stroke-width="2" opacity="0.3"/>
  <line x1="322" y1="275" x2="342" y2="295" stroke="#FFFFFF" stroke-width="2" opacity="0.3"/>

  <!-- Left wing inside wall -->
  <path d="M200 310 C 180 295, 140 285, 115 275 C 135 300, 165 315, 195 320 C 170 300, 135 290, 120 285 C 145 310, 175 320, 200 325 Z" fill="#FFFFFF" opacity="0.9"/>

  <!-- Right wing inside wall -->
  <path d="M312 310 C 332 295, 372 285, 397 275 C 377 300, 347 315, 317 320 C 342 300, 377 290, 392 285 C 367 310, 337 320, 312 325 Z" fill="#FFFFFF" opacity="0.9"/>
</svg>
